<?xml version="1.0" encoding="UTF-8"?>
<svg width="338px" height="219px" viewBox="0 0 338 219" version="1.1" xmlns="http://www.w3.org/2000/svg" xmlns:xlink="http://www.w3.org/1999/xlink">
    <!-- Generator: Sketch 56.2 (81672) - https://sketch.com -->
    <title>Group 29</title>
    <desc>Created with Sketch.</desc>
    <defs>
        <polygon id="path-1" points="1.11502392 1.30590909 58.9315435 1.30590909 58.9315435 128.491873 1.11502392 128.491873"></polygon>
        <polygon id="path-3" points="0 1.2971 28.9222545 1.2971 28.9222545 37.8007364 0 37.8007364"></polygon>
    </defs>
    <g id="Page-1" stroke="none" stroke-width="1" fill="none" fill-rule="evenodd">
        <g id="Desktop-HD-Copy-65" transform="translate(-968.000000, -1787.000000)">
            <g id="Group-29" transform="translate(968.000000, 1786.000000)">
                <path d="M216.383109,27.3897818 C216.336745,27.4392364 216.276473,27.4655091 216.211564,27.4655091 L176.728291,27.4655091 C176.666473,27.4655091 176.6062,27.4392364 176.559836,27.3913273 C176.515018,27.3434182 176.491836,27.2800545 176.493309,27.2166909 C176.819473,20.5959636 178.692564,15.5237818 182.060109,12.1361455 C185.639382,8.53678182 190.458109,6.71005455 196.3772,6.71005455 L196.570382,6.71005455 C202.4292,6.71005455 207.229382,8.54914545 210.841109,12.1763273 C214.231836,15.5825091 216.120382,20.6392364 216.452913,27.2074182 C216.455745,27.2738727 216.431018,27.3403273 216.383109,27.3897818 M214.916473,40.7564182 C213.930473,43.5011455 212.553473,45.8054182 210.8272,47.6043273 C209.096291,49.4047818 207.006836,50.7848727 204.616018,51.7059636 C202.185018,52.6394182 199.478927,53.1123273 196.570382,53.1123273 L196.3772,53.1123273 C190.459655,53.1123273 185.642473,51.2686 182.0632,47.6306 C178.695655,44.2166909 176.821018,39.1383273 176.493309,32.5361455 C176.491836,32.4727818 176.515018,32.4078727 176.559836,32.3599636 C176.607745,32.3120545 176.666473,32.2857818 176.728291,32.2857818 L216.208473,32.2857818 C216.274927,32.2857818 216.336745,32.3136 216.383109,32.3630545 C216.429473,32.4125091 216.4542,32.4758727 216.449564,32.5423273 C216.288836,35.5791455 215.772655,38.3424182 214.916473,40.7564182 M211.686473,72.7890545 C213.828473,83.1961455 217.817291,102.569964 208.325109,109.600236 C202.999473,113.547327 193.841109,113.448418 188.725655,109.390055 C180.202473,102.627145 183.891473,85.0908727 186.333291,73.4783273 C187.467655,68.0846909 189.164564,62.7729636 191.323564,57.6405091 C192.964836,57.9171455 194.6262,58.0840545 196.284473,58.0840545 L196.477655,58.0840545 C199.194564,58.0840545 201.812564,57.7363273 204.266745,57.0470545 L204.269836,57.0532364 L204.285291,57.0486 L204.651564,56.9265091 L204.696382,56.9126 C205.294473,56.7132364 205.833836,56.5339636 206.367018,56.3376909 C208.720745,61.6494182 210.527382,67.1666909 211.686473,72.7890545 M236.146382,27.4655091 L221.935927,27.4655091 C221.813836,27.4655091 221.713382,27.3681455 221.7072,27.2429636 C221.529473,23.5647818 220.881927,20.2111455 219.783109,17.2778727 C218.532836,13.9520545 216.792655,11.1068727 214.610473,8.8196 C212.412836,6.51687273 209.746927,4.74114545 206.691564,3.54341818 C203.662473,2.34878182 200.2872,1.74450909 196.661564,1.74450909 L196.477655,1.74450909 C192.805655,1.74450909 189.402564,2.33487273 186.358018,3.50014545 C183.310382,4.66850909 180.629018,6.43032727 178.389655,8.73769091 C176.173473,11.0249636 174.416291,13.8701455 173.162927,17.1959636 C172.062564,20.1261455 171.415018,23.5091455 171.237291,27.2491455 C171.231109,27.3696909 171.135291,27.4655091 171.017836,27.4655091 L158.634109,27.4655091 C157.303473,27.4655091 156.2232,28.5473273 156.2232,29.8764182 C156.2232,31.2055091 157.303473,32.2857818 158.634109,32.2857818 L171.016291,32.2857818 C171.135291,32.2857818 171.231109,32.3816 171.237291,32.5052364 C171.410382,36.2498727 172.042473,39.6390545 173.113473,42.5738727 C174.343655,45.9336909 176.086927,48.7927818 178.295382,51.0707818 C180.520836,53.3750545 183.2022,55.1415091 186.266836,56.3206909 C186.331745,56.3469636 186.401291,56.3670545 186.469291,56.3886909 L186.472382,56.3902364 C185.081473,59.7778727 183.891473,63.2427818 182.911655,66.7556 C179.720291,68.4216 177.001836,70.5033273 174.870655,73.0038727 C174.014473,74.0068727 173.368473,74.9326 172.8492,75.6775091 C171.874018,77.0730545 171.473745,77.5846 170.813836,77.8256909 C169.880382,78.1656909 168.591473,77.9246 167.036745,77.1256 C165.958018,76.5692364 164.625836,76.9432364 163.935018,77.9431455 C163.069564,79.1980545 163.553291,80.9073273 164.917927,81.5904182 C166.692109,82.4775091 168.3612,82.9226 169.917473,82.9226 C170.821564,82.9226 171.685473,82.7711455 172.5092,82.4713273 C174.694473,81.6738727 175.768564,80.1361455 176.904473,78.5072364 C177.409836,77.7824182 177.933745,77.0344182 178.633836,76.2122364 C179.395745,75.3174182 180.281291,74.4998727 181.228655,73.7271455 C178.630745,86.1278727 175.292564,103.806327 184.763109,112.499509 C184.826473,114.401964 184.641018,116.282782 184.175836,118.097145 C183.494291,120.756873 182.849836,123.269782 181.3662,123.993055 C180.136018,124.592691 178.233564,124.193964 176.366655,123.033327 C175.360564,122.407418 174.043836,122.619145 173.2572,123.504691 C172.235655,124.652964 172.495291,126.454964 173.802745,127.260145 C175.872109,128.532055 178.049655,129.201236 180.069564,129.201236 C181.304382,129.201236 182.480473,128.952418 183.534473,128.437782 C187.072018,126.709964 188.079655,122.7876 188.966745,119.325782 C189.280473,118.101782 189.487564,116.853055 189.609655,115.593509 C192.383745,116.795873 195.516382,117.412509 198.659836,117.412509 C200.454109,117.412509 202.248382,117.208509 203.979291,116.814418 C204.203382,118.417055 204.563473,119.996509 205.088927,121.531145 C206.090382,124.442782 206.954291,126.958782 209.391473,128.371327 C210.468655,128.997236 211.698836,129.301691 213.0202,129.301691 C215.307473,129.301691 217.869836,128.391418 220.404382,126.648145 C221.599018,125.824418 221.755109,124.107418 220.792291,123.019418 L220.783018,123.0086 C219.971655,122.092145 218.5962,121.889691 217.583927,122.578964 C215.084927,124.280509 212.8842,124.680782 211.871927,124.095055 C211.032745,123.606691 210.473291,121.980873 209.767018,119.923873 C209.230745,118.369145 208.8892,116.757236 208.742382,115.114418 C209.631018,114.664691 210.481018,114.156236 211.267655,113.5736 C223.297473,104.664055 218.894473,83.2811455 216.529927,71.7891455 C216.457291,71.4367818 216.356836,71.0906 216.281109,70.7397818 C219.0892,70.3209636 222.5912,69.1835091 225.4982,66.2981455 C227.935382,63.8779636 228.930655,61.2012364 229.732745,59.0499636 C230.505473,56.9759636 231.017018,54.8216 231.2612,52.6162364 C231.420382,51.1789636 230.2752,49.9225091 228.8302,49.9024182 L228.820927,49.9008727 C227.553655,49.8838727 226.485745,50.8296909 226.343564,52.0892364 C226.141109,53.8866 225.725382,55.6391455 225.097927,57.3252364 C224.368473,59.2848727 223.6792,61.1347818 222.014745,62.7899636 C219.868109,64.9196 217.157382,65.6722364 215.072564,65.9148727 C213.939745,61.8889636 212.505564,57.9341455 210.791655,54.0844182 C212.142382,53.2066 213.392655,52.2097818 214.505382,51.0769636 C216.754018,48.7835091 218.529745,45.9244182 219.783109,42.5800545 C220.883473,39.6313273 221.531018,36.2436909 221.708745,32.5098727 C221.714927,32.3831455 221.815382,32.2857818 221.937473,32.2857818 L236.146382,32.2857818 C237.473927,32.2857818 238.555745,31.2055091 238.555745,29.8764182 C238.555745,28.5473273 237.473927,27.4655091 236.146382,27.4655091" id="Fill-1" fill="#1D1D1B"></path>
                <g id="Group-5" transform="translate(24.727273, 0.239545)">
                    <mask id="mask-2" fill="white">
                        <use xlink:href="#path-1"></use>
                    </mask>
                    <g id="Clip-4"></g>
                    <path d="M50.3569364,97.5302364 C50.3569364,111.491873 41.2356636,122.850964 30.0233909,122.850964 C18.8126636,122.850964 9.69139091,111.491873 9.69139091,97.5302364 C9.69139091,83.5686 18.8126636,72.2095091 30.0233909,72.2095091 C41.2356636,72.2095091 50.3569364,83.5686 50.3569364,97.5302364 M56.2234818,50.0971455 L33.1266636,50.2207818 L33.0663909,50.1620545 L33.0663909,35.1464182 C33.0663909,34.9795091 33.1282091,34.8172364 33.2363909,34.6905091 L57.5865727,6.40869091 C58.1692091,5.73178182 58.4891182,4.86787273 58.4891182,3.9746 C58.4891182,2.84641818 57.8338455,1.89596364 56.7813909,1.49414545 C55.7273909,1.09078182 54.6069364,1.36278182 53.8558455,2.20505455 L29.9569364,28.9414182 C29.9074818,28.9970545 29.7962091,29.0001455 29.7436636,28.9414182 L5.84320909,2.20041818 C5.09211818,1.35814545 3.97320909,1.0846 2.9223,1.48950909 C1.86984545,1.89287273 1.21457273,2.84178182 1.21457273,3.96841818 C1.21457273,4.86632727 1.53911818,5.73487273 2.12793636,6.41332727 L26.8026636,34.7832364 C26.9139364,34.9115091 26.9742091,35.0737818 26.9742091,35.2437818 L26.9742091,50.1620545 L26.9170273,50.2207818 L3.83566364,50.0971455 C2.3783,50.0971455 1.19293636,51.2376909 1.13266364,52.6966 L1.11720909,53.1216 C1.08784545,53.8634182 1.35520909,54.5666 1.87139091,55.1028727 C2.38602727,55.6391455 3.07839091,55.9327818 3.82175455,55.9327818 L26.9788455,55.9327818 L26.9788455,66.7911455 C13.8950273,68.6194182 4.04893636,81.7990545 4.04893636,97.5302364 C4.04893636,114.602873 15.7001182,128.491873 30.0233909,128.491873 C44.3451182,128.491873 55.9978455,114.602873 55.9978455,97.5302364 C55.9978455,81.7990545 46.1517545,68.6209636 33.0663909,66.7911455 L33.0663909,55.9327818 L56.2064818,55.9327818 C57.6669364,55.9327818 58.8553909,54.7906909 58.9125727,53.3317818 L58.9295727,52.9114182 C58.9573909,52.1649636 58.6900273,51.4586909 58.1707545,50.9224182 C57.6561182,50.3907818 56.9637545,50.0971455 56.2234818,50.0971455" id="Fill-3" fill="#1D1D1B" mask="url(#mask-2)"></path>
                </g>
                <path d="M138.814582,45.8847 C136.881218,47.9417 134.544491,49.5860636 131.866218,50.7714273 C129.195673,51.9629727 126.203673,52.5657 122.975218,52.5657 C119.808582,52.5657 116.853673,51.9629727 114.187764,50.7698818 C111.521855,49.5891545 109.165036,47.9432455 107.186855,45.8769727 C105.227218,43.8323364 103.672491,41.4137 102.5644,38.6921545 C101.462491,35.9876091 100.906127,33.0419727 100.906127,29.9417909 L100.906127,29.7347 C100.906127,26.6298818 101.447036,23.6827 102.518036,20.9750636 C103.593673,18.2535182 105.100491,15.8348818 106.993673,13.7840636 C108.885309,11.7363364 111.203491,10.0919727 113.881764,8.89579091 C116.561582,7.71197273 119.552036,7.11079091 122.775855,7.11079091 C125.937855,7.11079091 128.912855,7.71197273 131.614309,8.89733636 C134.331218,10.0950636 136.701945,11.7440636 138.661582,13.7979727 C140.624309,15.8457 142.179036,18.2627909 143.287127,20.9858818 C144.385945,23.6919727 144.9454,26.6345182 144.9454,29.7347 L144.9454,29.9417909 C144.9454,33.0450636 144.402945,35.9922455 143.331945,38.7014273 C142.257855,41.4198818 140.735582,43.8369727 138.814582,45.8847 L138.814582,45.8847 Z M137.109945,87.1344273 C137.109945,95.7147909 130.129127,102.695609 121.547218,102.695609 C114.486036,102.695609 108.740036,96.9496091 108.740036,89.8884273 L108.740036,53.9457909 L108.950218,54.0910636 C109.843491,54.6041545 110.763036,55.0832455 111.730491,55.5067 C115.101127,56.9810636 118.868945,57.7290636 122.925764,57.7290636 C126.994945,57.7290636 130.764309,56.9625182 134.127218,55.4526091 C134.731491,55.1821545 135.3064,54.8746091 135.8844,54.5701545 L137.109945,53.7727 L137.109945,87.1344273 Z M157.611945,47.2137909 C156.253491,47.1071545 155.035673,48.0545182 154.8224,49.4006091 C154.245945,53.0463364 153.023491,56.5637909 151.195218,59.7319727 C150.867582,60.2991545 150.490491,60.8447 150.026855,61.3067909 C147.813764,63.5028818 144.793945,64.3451545 142.366036,64.6480636 L142.366036,49.8395182 C142.523673,49.6834273 142.695218,49.5381545 142.846673,49.3789727 C145.266855,46.8567909 147.1724,43.8694273 148.512309,40.4987909 C149.846036,37.1297 150.5214,33.5427 150.5214,29.8336091 L150.5214,29.6342455 C150.5214,25.9220636 149.846036,22.3520636 148.509218,19.0247 C147.170855,15.6880636 145.265309,12.7177 142.848218,10.2001545 C140.428036,7.66715455 137.510218,5.63642727 134.181309,4.16360909 C130.843127,2.6877 127.089218,1.93815455 123.024673,1.93815455 C118.975582,1.93815455 115.190764,2.70779091 111.775309,4.22233636 C108.367582,5.7307 105.415764,7.77379091 103.001764,10.2975182 C100.583127,12.8197 98.6760364,15.8070636 97.3392182,19.1777 C96.0101273,22.5328818 95.3363091,26.1167909 95.3363091,29.8336091 L95.3363091,30.0407 C95.3363091,33.7667909 96.0116727,37.3367909 97.3407636,40.6502455 C98.6775818,43.9853364 100.583127,46.9557 103.000218,49.4763364 C103.154764,49.6370636 103.327855,49.7777 103.485491,49.9337909 L103.485491,61.4041545 C101.379036,59.7814273 99.3869455,58.0149727 97.5602182,56.0862455 C95.5124909,53.9272455 93.6533091,51.5843364 92.0120364,49.0961545 C91.2501273,47.9417 89.6984909,47.6171545 88.5084909,48.3234273 C87.2134,49.0915182 86.8301273,50.7884273 87.6615818,52.0433364 C89.4635818,54.7679727 91.5035818,57.3349727 93.7444909,59.7010636 C96.6638545,62.7811545 99.9448545,65.5150636 103.485491,67.8672455 L103.485491,89.8884273 C103.485491,94.1662455 104.987673,98.0963364 107.483582,101.193427 C105.2164,105.305882 103.7544,109.728973 103.136218,114.369973 C102.745218,117.317155 102.705036,123.383064 103.017218,126.342609 C103.177945,127.863336 104.605945,128.9297 106.112764,128.656155 L106.114309,128.656155 C107.463491,128.408882 108.389218,127.167882 108.245491,125.803245 C107.973491,123.254791 108.007491,117.599973 108.345945,115.063882 C108.8204,111.501609 109.879036,108.090791 111.487855,104.880882 C114.365491,106.818882 117.827309,107.9517 121.547218,107.9517 C125.974945,107.9517 130.076582,106.551518 133.4534,104.185427 C134.247764,107.004336 134.845855,109.881973 135.2044,112.787427 C135.641764,116.306427 135.756127,122.9627 135.542855,126.506427 C135.457855,127.931336 136.465491,129.183155 137.884218,129.331518 C139.384855,129.487609 140.6954,128.350155 140.785036,126.844882 C141.019945,122.970427 140.8994,115.984973 140.420309,112.139882 C139.918036,108.089245 138.996945,104.088064 137.725036,100.210518 C140.622764,96.6327909 142.366036,92.0860636 142.366036,87.1344273 L142.366036,69.9350636 C145.9824,69.5780636 150.955673,68.2937909 154.473127,64.2369727 C156.806764,61.5463364 157.815945,58.4322455 158.707673,55.6782455 C159.282582,53.9040636 159.7184,52.0788818 160.012036,50.2274273 C160.248491,48.7206091 159.131127,47.3343364 157.611945,47.2137909 L157.611945,47.2137909 Z" id="Fill-6" fill="#1D1D1B"></path>
                <path d="M299.490545,103.996109 C299.258727,105.283473 297.673091,106.127291 296.031818,105.847564 C295.523364,105.759473 294.181909,104.768836 293.381364,104.175382 C291.537636,102.810745 289.709364,101.3982 287.485455,101.433745 C285.241455,101.467745 283.510545,102.487745 282.121182,103.306836 C281.081091,103.918836 280.184727,104.447382 279.215727,104.554018 C278.407455,104.642109 278.025727,104.431927 277.007273,103.821473 C275.800273,103.096655 274.152818,102.079745 271.493091,102.136927 C269.008,102.164745 267.508909,103.065745 266.414727,103.722564 C265.507545,104.268109 265.201545,104.427291 264.495273,104.359291 C263.699364,104.291291 263.314545,103.994564 262.444455,103.271291 C261.441455,102.438291 260.067545,101.297745 257.730818,100.851109 C254.610545,100.2592 252.315545,101.382745 250.906091,102.106018 C250.620182,99.3288364 251.901364,91.3419273 258.202182,70.4736545 L259.534364,66.0675636 C260.555909,62.6799273 261.852545,58.3820182 263.037909,54.4642909 C263.090455,54.4936545 263.129091,54.5168364 263.189364,54.5492909 C264.351545,55.2169273 265.348364,55.7130182 266.328182,56.1086545 C269.542727,57.4192 273.012273,58.0837455 276.641,58.0837455 C280.781273,58.0837455 284.542909,57.3048364 287.844,55.7624727 C289.996818,61.5764727 291.982727,67.5172 293.736818,73.4903818 C297.266636,85.4846545 300.617182,97.7215636 299.490545,103.996109 M257.438727,19.7379273 C258.471091,17.1724727 259.879,14.9284727 261.625364,13.0662 C263.373273,11.2070182 265.441091,9.73729091 267.773182,8.69256364 C270.106818,7.6432 272.692364,7.11156364 275.457182,7.11156364 C278.483182,7.11156364 281.193909,7.70347273 283.513636,8.87338182 C285.850364,10.0479273 287.828545,11.6273818 289.397182,13.5715636 C290.976636,15.5142 292.225364,17.7782909 293.106273,20.3004727 C293.931545,22.6866545 294.449273,24.8904727 294.647091,26.8516545 C294.648636,26.8655636 294.651727,26.9042 294.613091,26.9474727 L294.61,26.9505636 C294.571364,26.9922909 294.520364,27.0154727 294.466273,27.0154727 L255.950455,26.9258364 C255.897909,26.9258364 255.846909,26.9026545 255.808273,26.8609273 C255.761909,26.8099273 255.766417,26.7666545 255.766417,26.7542909 C255.995273,24.2939273 256.559364,21.9340182 257.438727,19.7379273 M309.74,47.6534727 C308.397,47.4556545 307.159091,48.3226545 306.808273,49.6347455 C306.468273,50.9128364 304.989273,55.5553818 304.409727,56.7469273 C303.567455,58.4809273 302.695818,60.2752 300.777909,61.8778364 C299.499818,62.9472909 297.999182,63.7030182 296.330091,64.1666545 C295.101455,60.4034727 293.794,56.6712 292.415455,52.9914727 C294.321,51.5990182 296.059636,50.0272909 297.574182,48.2902 C298.050182,47.7384727 298.277364,47.0322 298.207818,46.2981091 C298.139818,45.5578364 297.767364,44.8670182 297.184727,44.4049273 C296.055,43.5070182 294.407545,43.6708364 293.429273,44.7820182 C291.647364,46.8251091 289.446636,48.6193818 286.890455,50.1153818 C283.929364,51.8462909 280.496909,52.7241091 276.690455,52.7241091 C273.989,52.7241091 271.355545,52.2172 268.864273,51.2157455 C266.374545,50.2142909 264.170727,48.7832 262.31,46.9642 C260.433818,45.1173818 258.876,42.8239273 257.679818,40.1487455 C256.678364,37.9109273 256.038545,35.4072909 255.780455,32.7073818 C255.769636,32.5837455 255.825273,32.4925636 255.874727,32.4384727 C255.956636,32.3488364 256.075636,32.2932 256.193091,32.2932 C256.485182,32.2947455 285.808636,32.4353818 299.045455,32.2993818 C299.167545,32.2962909 299.468909,32.2808364 299.611091,32.2004727 C299.739364,32.1293818 299.903182,31.9732909 299.986636,31.8759273 C300.144273,31.6920182 300.468818,31.3102909 300.403909,29.9688364 C300.254,26.8346545 299.955727,23.1533818 298.880091,19.5988364 C297.850818,16.2343818 296.269818,13.1975636 294.181909,10.5718364 C292.081636,7.93374545 289.466727,5.78401818 286.409818,4.18138182 C283.322,2.56483636 279.707182,1.7442 275.665818,1.7442 C271.970636,1.7442 268.511909,2.46901818 265.385455,3.89547273 C262.248182,5.32501818 259.495727,7.32792727 257.203818,9.84547273 C254.891818,12.3753818 253.075909,15.3766545 251.808636,18.7673818 C250.546,22.1411091 249.904636,25.8239273 249.904636,29.7153818 L249.904636,29.9132 C249.904636,34.1601091 250.620182,38.0608364 252.029636,41.5102909 C253.446818,44.9782909 255.391,47.9780182 257.806545,50.4291091 C258.046091,50.6717455 258.296455,50.9097455 258.551455,51.1477455 C257.231636,55.5028364 255.683091,60.6337455 254.502364,64.5499273 L254.148455,65.7229273 C252.440727,65.6642 251.162636,65.2871091 250.413091,64.5205636 C249.861364,63.9564727 249.692909,63.3243818 249.334364,61.8237455 C249.127273,60.9613818 248.893909,59.9831091 248.499818,58.8255636 C247.748727,56.6232909 245.118364,51.8679273 243.673364,49.8542 C242.773909,48.5992909 240.964182,48.4184727 239.805091,49.4415636 C238.786636,50.3410182 238.646,51.8555636 239.437273,52.9621091 C240.563909,54.5431091 242.947,58.8255636 243.526545,60.5240182 C243.841818,61.4466545 244.035,62.2595636 244.223545,63.0446545 C244.637727,64.7786545 245.065818,66.5713818 246.659182,68.1972 C248.128909,69.6962909 250.124091,70.5895636 252.593727,70.8878364 C244.079818,99.3767455 244.379636,105.226291 248.258727,107.335836 C250.189,108.386745 252.001818,107.453291 253.201091,106.835109 C254.337,106.249382 255.313727,105.739382 256.744818,106.012927 C257.752455,106.206109 258.282545,106.646564 259.086182,107.3142 C259.764636,107.876745 260.61,108.570655 261.781455,109.051291 C261.195727,111.432836 260.330273,113.732473 259.152636,115.900745 C257.580909,118.795382 255.479091,121.439655 253.003273,123.6512 C251.983273,124.563018 251.817909,126.091473 252.640091,127.185655 C253.561182,128.4112 255.346182,128.602836 256.489818,127.581291 C259.42,124.963291 261.446091,122.091836 263.772,118.407473 C265.536909,115.6102 266.561545,112.455927 267.184364,109.199655 C267.958636,108.918382 268.589182,108.545927 269.119273,108.227564 C269.975455,107.712927 270.491636,107.403836 271.553364,107.389927 C272.751091,107.371382 273.349182,107.754655 274.304273,108.328018 C275.299545,108.923018 276.597727,109.689564 278.449182,109.800836 C278.898909,113.125109 280.088909,117.217473 282.929455,121.218655 C284.632545,123.614109 287.252091,126.244473 289.689273,127.938291 C290.955,128.816109 292.710636,128.346291 293.444727,126.994018 L293.449364,126.986291 C294.092273,125.797836 293.712091,124.342018 292.605545,123.5662 C290.7,122.227836 288.547182,120.051836 287.215,118.1772 C284.788636,114.758655 283.881455,111.256655 283.589364,108.508836 C284.012818,108.281655 284.417727,108.051382 284.787091,107.833473 C285.980182,107.130291 286.752909,106.700655 287.516364,106.6852 C288.041818,106.760927 289.426545,107.787109 290.254909,108.399109 C291.800364,109.542745 293.401455,110.725018 295.138545,111.024836 C295.654727,111.114473 296.167818,111.157745 296.673182,111.157745 C300.577,111.157745 304.001727,108.592291 304.661636,104.924927 C305.992273,97.5175636 302.637091,85.1276545 298.778091,72.0082909 C298.499909,71.0609273 298.201636,70.1182 297.912636,69.1723818 C300.224636,68.4985636 302.362,67.4028364 304.148545,65.9083818 C306.930364,63.5855636 308.205364,60.9582909 309.135727,59.0419273 C309.880636,57.5134727 311.487909,52.5154727 311.916,50.8711091 C312.307,49.3766545 311.266909,47.8775636 309.74,47.6534727" id="Fill-8" fill="#1D1D1B"></path>
                <g id="Group-12" transform="translate(0.000000, 171.785000)">
                    <mask id="mask-4" fill="white">
                        <use xlink:href="#path-3"></use>
                    </mask>
                    <g id="Clip-11"></g>
                    <path d="M26.8158,4.0341 C27.9408909,4.0341 28.9222545,5.0881 28.9222545,6.2101 C28.9222545,6.84219091 28.6425273,7.40473636 28.0088909,7.89619091 L11.7924364,22.6382818 L28.0799818,34.0097364 C28.7120727,34.5011909 28.9222545,35.1332818 28.9222545,35.6942818 C28.9222545,36.8178273 28.0088909,37.8007364 26.8868909,37.8007364 C26.3258909,37.8007364 25.8328909,37.5905545 25.4125273,37.2397364 L7.16070909,24.1821909 C6.66925455,23.7618273 6.45752727,23.2703727 6.45752727,22.6382818 C6.45752727,21.8655545 6.7388,21.3030091 7.37089091,20.8826455 L25.4820727,4.5271 C25.9735273,4.17473636 26.3954364,4.0341 26.8158,4.0341 M3.36970909,1.2971 C4.42370909,1.2971 5.47461818,1.99873636 5.47461818,3.33246364 L5.47461818,3.4731 L4.21198182,35.6942818 C4.21198182,37.0991 3.15798182,37.8007364 2.10707273,37.8007364 C1.05307273,37.8007364 -0.000927272727,37.0991 -0.000927272727,35.7653727 L-0.000927272727,35.6247364 L1.2648,3.40355455 C1.2648,1.99873636 2.31570909,1.2971 3.36970909,1.2971" id="Fill-10" fill="#1D1D1B" mask="url(#mask-4)"></path>
                </g>
                <path d="M47.1708273,184.804991 C46.1183727,184.804991 45.3456455,184.032264 45.1354636,183.120445 C44.7846455,183.191536 44.3642818,183.259536 43.9423727,183.471264 C39.7990091,184.313536 37.8347364,187.823264 37.8347364,191.405627 C37.8347364,194.983355 39.7310091,198.425082 43.3798273,199.616627 C44.1525545,199.8979 44.8541909,200.038536 45.6269182,200.038536 C50.0484636,200.038536 53.1378273,195.123991 53.1378273,190.843082 C53.1378273,187.823264 51.6634636,185.155809 48.0841909,184.594809 C47.7318273,184.735445 47.3825545,184.804991 47.1708273,184.804991 M51.0329182,180.734264 C55.2442818,182.207082 57.3507364,186.560627 57.3507364,191.122809 C57.3507364,194.562991 56.1561,198.003173 53.8394636,200.4589 C51.6634636,202.987264 48.9264636,204.109264 45.9081909,204.109264 C40.7123727,204.109264 35.1672818,200.601082 34.0437364,194.983355 C33.6218273,193.720718 33.4131909,192.458082 33.4131909,191.263445 C33.4131909,184.1729 40.5021909,178.558264 47.5231909,178.558264 L48.2943727,178.558264 C48.5741,178.558264 48.8569182,178.558264 49.1366455,178.627809 C50.4703727,178.837991 51.0329182,179.681809 51.0329182,180.734264" id="Fill-13" fill="#1D1D1B"></path>
                <path d="M76.3715727,186.279509 L76.1613909,198.3526 C79.3203,197.442327 81.4267545,194.632691 81.4267545,191.053418 C81.4267545,188.0336 79.9508455,186.840509 76.3715727,186.279509 M71.9500273,198.3526 L72.2297545,185.155964 C68.1590273,185.998236 66.1221182,188.175782 66.1221182,191.614418 C66.1221182,195.195236 68.0183909,197.020418 71.6687545,198.213509 C71.6687545,198.213509 71.7383,198.283055 71.9500273,198.3526 M74.6159364,166.975236 C75.6699364,166.975236 76.7919364,167.675327 76.7919364,169.151236 L76.5122091,180.242964 C76.7919364,180.242964 77.0747545,180.312509 77.4255727,180.312509 C78.7593,180.522691 79.3203,181.364964 79.3203,182.418964 C83.5332091,183.893327 85.6381182,186.9116 85.6381182,191.334691 C85.6381182,194.774873 84.4450273,196.598509 82.1283909,199.055782 C80.4438455,201.091145 78.3373909,202.074055 76.0207545,202.565509 L75.7410273,217.658418 C75.7410273,219.063236 74.7565727,219.693782 73.7041182,219.693782 C72.6516636,219.693782 71.5281182,218.992145 71.5281182,217.517782 L71.8093909,202.565509 C67.3878455,202.002964 63.2444818,199.898055 62.3326636,195.195236 C61.9107545,193.931055 61.7005727,192.668418 61.7005727,191.473782 C61.7005727,185.577873 66.6151182,181.715782 72.3008455,180.592236 L72.5821182,169.0106 C72.5821182,167.605782 73.5650273,166.975236 74.6159364,166.975236" id="Fill-15" fill="#1D1D1B"></path>
                <path d="M94.4807455,190.281309 C98.0600182,188.666309 101.781473,187.473218 105.642018,186.349673 C104.588018,184.594036 102.693291,183.682218 100.798564,183.682218 C99.3242,183.682218 97.9904727,184.173673 96.8669273,185.156582 C95.1808364,186.630945 94.4807455,188.385036 94.4807455,190.281309 M100.9392,179.330218 C104.799745,179.330218 107.958655,181.926582 109.853382,185.226127 L109.994018,185.226127 C111.327745,185.226127 111.8192,186.349673 111.8192,187.473218 C111.8192,188.105309 111.609018,188.666309 111.256655,189.157764 C110.695655,189.649218 109.994018,190.071127 108.660291,190.071127 L108.379018,190.071127 C104.2372,191.123582 99.7445636,192.526855 95.5332,194.423127 C96.9364727,197.160127 99.6734727,199.197036 102.693291,199.197036 C103.957473,199.197036 105.220109,198.844673 106.414745,198.073491 C106.764018,197.932855 107.045291,197.861764 107.326564,197.861764 C108.519655,197.861764 109.433018,198.985309 109.433018,200.108855 C109.433018,201.020673 109.011109,201.652764 108.099291,202.003582 C106.274109,202.776309 104.377836,203.198218 102.483109,203.198218 C101.008745,203.198218 99.5343818,202.988036 98.2006545,202.496582 C93.0759273,200.810491 90.3373818,195.546673 90.3373818,190.632127 C90.3373818,185.788673 92.9352909,180.804582 98.5514727,179.681036 C99.4648364,179.470855 100.307109,179.330218 100.9392,179.330218" id="Fill-17" fill="#1D1D1B"></path>
                <path d="M140.035491,180.873509 C140.035491,179.539782 141.0184,178.838145 142.070855,178.838145 C142.982673,178.838145 143.896036,179.3296 144.177309,180.663327 L145.3704,197.371236 C149.583309,190.070509 154.636945,184.244145 160.253127,179.190509 C160.743036,178.627964 161.305582,178.346691 161.937673,178.346691 C162.991673,178.346691 163.901945,179.119418 163.973036,180.453145 L164.8864,203.760145 L164.8864,203.899236 C164.8864,205.304055 163.8324,206.005691 162.779945,206.005691 C161.727491,206.005691 160.743036,205.304055 160.673491,203.899236 L159.971855,186.209964 C154.355673,190.983873 150.003673,197.020418 145.792309,203.478873 C145.299309,204.039873 144.738309,204.321145 144.177309,204.321145 C143.263945,204.321145 142.352127,203.689055 142.1404,202.495964 L140.105036,181.364964 C140.105036,181.154782 140.035491,181.085236 140.035491,180.873509" id="Fill-19" fill="#1D1D1B"></path>
                <path d="M201.384318,175.9602 C202.085955,175.9602 202.718045,176.380564 217.529682,177.293927 C218.653227,177.293927 219.497045,178.276836 219.705682,179.400382 L219.705682,206.076473 C219.705682,207.549291 218.653227,208.252473 217.600773,208.252473 C216.548318,208.252473 215.565409,207.549291 215.353682,206.076473 L215.353682,181.435745 C211.3525,181.364655 207.351318,181.295109 203.350136,181.084927 L203.280591,182.698382 C203.280591,183.260927 203.211045,183.821927 203.211045,184.384473 C202.646955,197.301382 202.368773,205.654564 189.731591,213.165473 C189.380773,213.375655 189.029955,213.517836 188.536955,213.517836 C188.328318,213.517836 188.047045,213.446745 187.765773,213.375655 L188.047045,213.375655 C187.906409,213.375655 187.765773,213.307655 187.555591,213.236564 L187.765773,213.375655 C187.626682,213.375655 187.486045,213.307655 187.414955,213.236564 C186.572682,212.885745 186.152318,212.113018 186.152318,211.270745 C186.152318,210.218291 186.853955,209.164291 188.257227,209.164291 L188.818227,209.164291 L188.468955,208.954109 C200.613136,200.319655 198.366045,191.263291 199.279409,178.066655 C199.348955,176.661836 200.331864,175.9602 201.384318,175.9602" id="Fill-21" fill="#1D1D1B"></path>
                <path d="M257.892936,185.998855 C256.838936,185.998855 256.066209,185.226127 255.857573,184.314309 C255.505209,184.383855 255.084845,184.454945 254.662936,184.665127 C250.519573,185.5074 248.5553,188.947582 248.5553,192.526855 C248.626391,192.808127 248.695936,193.018309 248.695936,193.299582 L248.626391,193.791036 C248.975664,196.8804 250.802391,199.758036 254.101936,200.810491 C254.873118,201.091764 255.574755,201.230855 256.347482,201.230855 C260.770573,201.230855 263.858391,196.317855 263.858391,192.0354 C263.858391,189.018673 262.384027,186.349673 258.804755,185.788673 C258.452391,185.929309 258.103118,185.998855 257.892936,185.998855 L257.892936,185.998855 Z M227.847755,174.486764 C227.847755,173.081945 228.898664,172.378764 230.022209,172.378764 C231.145755,172.378764 232.2693,173.081945 232.550573,174.486764 L232.550573,192.526855 L244.133755,191.333764 C244.906482,184.805764 251.504027,179.752127 258.243755,179.752127 L259.016482,179.752127 C259.296209,179.752127 259.577482,179.752127 259.857209,179.820127 C261.192482,180.031855 261.753482,180.874127 261.753482,181.926582 C265.964845,183.400945 268.0713,187.752945 268.0713,192.316673 C268.0713,195.756855 266.876664,199.197036 264.560027,201.652764 C262.384027,204.181127 259.647027,205.303127 256.628755,205.303127 C251.432936,205.303127 245.887845,201.7934 244.7643,196.177218 L244.554118,195.546673 L232.970936,196.809309 L232.970936,208.182309 L232.970936,208.3214 C232.970936,209.726218 231.847391,210.4294 230.725391,210.4294 C229.601845,210.4294 228.337664,209.726218 227.847755,208.3214 L227.847755,174.6274 L227.847755,174.486764 Z" id="Fill-23" fill="#1D1D1B"></path>
                <path d="M295.865373,197.160282 L295.936464,196.387555 C296.217736,191.825373 296.426373,187.261645 296.778736,182.769009 L287.652827,181.577464 C287.159827,186.6311 286.108918,191.615191 283.931373,196.739918 L295.865373,197.160282 Z M274.173373,214.8511 C273.120918,214.8511 271.998918,214.078373 271.998918,212.6751 L272.841191,198.353373 C272.909191,197.300918 273.681918,196.387555 274.734373,196.387555 L274.876555,196.387555 L279.648918,196.599282 C282.245282,190.772918 283.721191,184.875464 284.072009,178.767827 C284.353282,177.856009 285.054918,177.152827 286.108918,177.152827 L299.305555,178.838918 C300.358009,179.0491 301.129191,179.891373 301.129191,180.943827 L301.129191,181.086009 C300.639282,186.6311 300.4291,191.825373 300.078282,197.370464 L306.114827,197.580645 C307.236827,197.651736 308.150191,198.494009 308.502555,199.617555 L308.502555,216.535645 C308.502555,217.938918 307.448555,218.640555 306.394555,218.640555 C305.343645,218.640555 304.289645,217.938918 304.009918,216.535645 L304.009918,201.722464 L276.911918,200.670009 L276.208736,212.815736 C276.139191,214.147918 275.227373,214.8511 274.173373,214.8511 L274.173373,214.8511 Z" id="Fill-25" fill="#1D1D1B"></path>
                <path d="M312.990555,180.873509 C312.990555,179.539782 313.973464,178.838145 315.024373,178.838145 C315.937736,178.838145 316.8511,179.3296 317.132373,180.663327 L318.323918,197.371236 C322.536827,190.070509 327.590464,184.244145 333.208191,179.190509 C333.6981,178.627964 334.260645,178.346691 334.892736,178.346691 C335.945191,178.346691 336.857009,179.119418 336.9281,180.453145 L337.839918,203.760145 L337.839918,203.899236 C337.839918,205.304055 336.787464,206.005691 335.735009,206.005691 C334.681009,206.005691 333.6981,205.304055 333.628555,203.899236 L332.925373,186.209964 C327.310736,190.983873 322.957191,197.020418 318.747373,203.478873 C318.254373,204.039873 317.693373,204.321145 317.132373,204.321145 C316.219009,204.321145 315.305645,203.689055 315.095464,202.495964 L313.0601,181.364964 C313.0601,181.154782 312.990555,181.085236 312.990555,180.873509" id="Fill-27" fill="#1D1D1B"></path>
            </g>
        </g>
    </g>
</svg>