<?xml version="1.0" encoding="UTF-8"?>
<svg width="950px" height="376px" viewBox="0 0 950 376" version="1.1" xmlns="http://www.w3.org/2000/svg" xmlns:xlink="http://www.w3.org/1999/xlink">
    <!-- Generator: Sketch 56.2 (81672) - https://sketch.com -->
    <title>Group 10</title>
    <desc>Created with Sketch.</desc>
    <defs>
        <polygon id="path-1" points="0.953452643 0.274118943 102.899229 0.274118943 102.899229 297.100138 0.953452643 297.100138"></polygon>
    </defs>
    <g id="Page-1" stroke="none" stroke-width="1" fill="none" fill-rule="evenodd">
        <g id="Desktop-HD-Copy-51" transform="translate(-407.000000, 0.000000)">
            <g id="Group-10" transform="translate(407.000000, -69.000000)">
                <path d="M204.980391,301.282037 L223.238596,404.840407 L181.903133,411.382643 L163.644928,307.824273 C157.485622,272.891894 142.886173,255.351421 111.023508,260.393326 C86.0493888,264.346079 68.4335848,289.944813 74.3742236,323.641564 L92.3426156,425.557313 L51.0071531,432.099548 L0.000104625551,142.793161 L41.3355672,136.250925 L62.7817126,257.890683 C67.1393667,244.951641 83.5488381,227.570198 112.398287,223.004339 C161.483365,215.234846 194.692561,242.927137 204.980391,301.282037" id="Fill-1" fill="#2B2B2B"></path>
                <path d="M329.54098,269.74005 L428.573249,254.067142 C422.64935,230.504422 401.231454,214.462186 373.675176,218.824025 C346.117852,223.184818 331.22022,244.128761 329.54098,269.74005 M476.284593,283.687682 L335.055793,306.039884 C346.151333,331.317417 370.726828,347.704917 400.007335,343.070006 C422.826167,339.458331 432.646322,329.87777 440.021377,318.996713 L473.358216,337.374191 C461.044835,357.909047 438.244835,374.189829 406.38217,379.232781 C347.823249,388.501558 298.661795,350.661635 289.09902,296.416426 C279.535198,242.171217 307.879306,192.064994 367.299295,182.66125 C417.676498,174.686691 464.313337,205.744785 474.675452,264.510865 C475.906894,271.497759 476.56185,277.730303 476.284593,283.687682" id="Fill-3" fill="#2B2B2B"></path>
                <polygon id="Fill-5" fill="#2B2B2B" points="723.535903 129.657318 657.856167 437.433254 613.936454 444.38353 639.807214 330.039312 530.635683 160.1881 575.415419 153.100765 652.138381 276.976371 678.755121 136.744653"></polygon>
                <g id="Group-9" transform="translate(846.420705, 0.772137)">
                    <mask id="mask-2" fill="white">
                        <use xlink:href="#path-1"></use>
                    </mask>
                    <g id="Clip-8"></g>
                    <path d="M0.953452643,7.90571586 L49.1785077,0.273281938 L78.2267456,205.192885 L43.7808756,210.644923 L0.953452643,7.90571586 Z M40.4349504,272.003623 C37.5368227,255.564857 48.9975055,240.235121 66.2209637,237.509626 C83.8733866,234.715077 99.5410628,245.752026 102.438144,262.190793 C105.337318,278.628513 94.3066465,293.890242 76.6542236,296.684791 C59.4307654,299.410286 43.3341244,288.44239 40.4349504,272.003623 L40.4349504,272.003623 Z" id="Fill-7" fill="#2B2B2B" mask="url(#mask-2)"></path>
                </g>
            </g>
        </g>
    </g>
</svg>